<?xml version="1.0" encoding="UTF-8" standalone="no"?>
<svg
   xmlns:dc="http://purl.org/dc/elements/1.1/"
   xmlns:cc="http://creativecommons.org/ns#"
   xmlns:rdf="http://www.w3.org/1999/02/22-rdf-syntax-ns#"
   xmlns:svg="http://www.w3.org/2000/svg"
   xmlns="http://www.w3.org/2000/svg"
   xmlns:sodipodi="http://sodipodi.sourceforge.net/DTD/sodipodi-0.dtd"
   xmlns:inkscape="http://www.inkscape.org/namespaces/inkscape"
   version="1.0"
   width="172.60001pt"
   height="103.1328pt"
   viewBox="0 0 172.60001 103.1328"
   preserveAspectRatio="xMidYMid meet"
   id="svg2"
   inkscape:version="0.91 r"
   sodipodi:docname="3G.svg">
  <defs
     id="defs28" />
  <sodipodi:namedview
     pagecolor="#ffffff"
     bordercolor="#666666"
     borderopacity="1"
     objecttolerance="10"
     gridtolerance="10"
     guidetolerance="10"
     inkscape:pageopacity="0"
     inkscape:pageshadow="2"
     inkscape:window-width="640"
     inkscape:window-height="480"
     id="namedview26"
     showgrid="false"
     fit-margin-top="0"
     fit-margin-left="0"
     fit-margin-right="0"
     fit-margin-bottom="0"
     inkscape:zoom="0.39484346"
     inkscape:cx="339.75"
     inkscape:cy="49.049101"
     inkscape:window-x="0"
     inkscape:window-y="0"
     inkscape:window-maximized="0"
     inkscape:current-layer="g6" />
  <metadata
     id="metadata4">
Created by potrace 1.11, written by Peter Selinger 2001-2013
<rdf:RDF>
  <cc:Work
     rdf:about="">
    <dc:format>image/svg+xml</dc:format>
    <dc:type
       rdf:resource="http://purl.org/dc/dcmitype/StillImage" />
    <dc:title></dc:title>
  </cc:Work>
</rdf:RDF>
</metadata>
  <g
     transform="matrix(0.1,0,0,-0.1,0.3,127.89353)"
     id="g6"
     style="fill:#000000;stroke:none">
    <path
       d="m 334,1269 c -96,-11 -173,-42 -228,-90 -53,-47 -73,-81 -85,-144 l -8,-45 136,0 136,1 20,42 c 36,76 112,105 189,73 46,-19 66,-52 66,-107 0,-88 -60,-128 -217,-145 l -63,-7 0,-72 0,-72 68,-7 c 97,-10 138,-23 177,-57 81,-72 38,-205 -75,-230 -76,-17 -170,48 -170,119 0,22 -1,22 -141,22 L -3,550 3,501 C 21,348 143,265 365,253 c 178,-9 332,42 419,138 50,56 62,93 53,169 -11,92 -75,175 -154,201 -41,13 -42,22 0,37 114,41 183,180 143,287 -49,127 -271,210 -492,184 z"
       id="path8"
       inkscape:connector-curvature="0" />
    <path
       d="m 1178,1261 c -75,-24 -118,-52 -172,-112 -58,-64 -90,-134 -112,-239 -22,-108 -15,-266 15,-362 43,-136 146,-245 269,-284 94,-29 347,-18 480,21 l 52,16 0,254 0,255 -190,0 -190,0 0,-95 0,-95 85,0 85,0 0,-89 c 0,-104 5,-100 -116,-108 -93,-7 -140,5 -189,48 -130,114 -121,505 14,596 54,37 107,47 171,35 69,-14 106,-51 115,-116 l 7,-46 111,0 110,0 -6,60 c -4,33 -13,75 -21,94 -20,47 -82,114 -129,137 -94,49 -285,63 -389,30 z"
       id="path10"
       inkscape:connector-curvature="0" />
  </g>
</svg>
