<?xml version="1.0" encoding="UTF-8" standalone="no"?>
<svg width="438px" height="146px" viewBox="0 0 438 146" version="1.1" xmlns="http://www.w3.org/2000/svg" xmlns:xlink="http://www.w3.org/1999/xlink" xmlns:sketch="http://www.bohemiancoding.com/sketch/ns">
    <!-- Generator: Sketch 3.5.2 (25235) - http://www.bohemiancoding.com/sketch -->
    <title>avangard-logo</title>
    <desc>Created with Sketch.</desc>
    <defs></defs>
    <g id="Amenities" stroke="none" stroke-width="1" fill="none" fill-rule="evenodd" sketch:type="MSPage">
        <g id="avangard-logo" sketch:type="MSLayerGroup" fill="#FFFFFF">
            <g id="Layer_1" sketch:type="MSShapeGroup">
                <g id="Group" transform="translate(0.000000, 79.539952)">
                    <path d="M14.8474576,29.6949153 L14.7414044,29.6949153 C13.2566586,32.0280872 10.8174334,33.0886199 8.06004843,33.0886199 C4.24213075,33.0886199 0.530266344,30.9675545 0.530266344,26.9375303 C0.530266344,20.2561743 8.37820823,19.725908 13.5748184,19.725908 L14.8474576,19.725908 L14.8474576,19.0895884 C14.8474576,16.5443099 12.8324455,15.1656174 10.0750605,15.1656174 C7.95399516,15.1656174 5.93898305,16.0140436 4.56029056,17.2866828 L1.80290557,14.5292978 C4.13607748,12.1961259 7.31767554,11.2416465 10.6053269,11.2416465 C19.4077482,11.2416465 19.4077482,17.6048426 19.4077482,20.5743341 L19.4077482,32.4523002 L14.8474576,32.4523002 L14.8474576,29.6949153 L14.8474576,29.6949153 Z M14.5292978,23.2256659 L13.4687651,23.2256659 C10.6053269,23.2256659 5.72687651,23.4377724 5.72687651,26.4072639 C5.72687651,28.3162228 7.63583535,29.1646489 9.33268765,29.1646489 C12.8324455,29.1646489 14.5292978,27.3617433 14.5292978,24.3922518 L14.5292978,23.2256659 L14.5292978,23.2256659 Z" id="Shape"></path>
                    <path d="M18.7714286,11.8779661 L24.3922518,11.8779661 L29.9070218,26.3012107 L30.0130751,26.3012107 L35.527845,11.8779661 L40.8305085,11.8779661 L32.6644068,32.5583535 L27.1496368,32.5583535 L18.7714286,11.8779661 L18.7714286,11.8779661 Z" id="Shape"></path>
                    <path d="M54.2992736,29.6949153 L54.1932203,29.6949153 C52.7084746,32.0280872 50.2692494,33.0886199 47.5118644,33.0886199 C43.6939467,33.0886199 39.9820823,30.9675545 39.9820823,26.9375303 C39.9820823,20.2561743 47.8300242,19.725908 53.0266344,19.725908 L54.2992736,19.725908 L54.2992736,19.0895884 C54.2992736,16.5443099 52.2842615,15.1656174 49.5268765,15.1656174 C47.4058111,15.1656174 45.390799,16.0140436 44.0121065,17.2866828 L41.2547215,14.5292978 C43.5878935,12.1961259 46.7694915,11.2416465 50.0571429,11.2416465 C58.8595642,11.2416465 58.8595642,17.6048426 58.8595642,20.5743341 L58.8595642,32.4523002 L54.1932203,32.4523002 L54.1932203,29.6949153 L54.2992736,29.6949153 Z M53.9811138,23.2256659 L52.9205811,23.2256659 C50.0571429,23.2256659 45.1786925,23.4377724 45.1786925,26.4072639 C45.1786925,28.3162228 47.0876513,29.1646489 48.7845036,29.1646489 C52.2842615,29.1646489 53.9811138,27.3617433 53.9811138,24.3922518 L53.9811138,23.2256659 L53.9811138,23.2256659 Z" id="Shape"></path>
                    <path d="M61.935109,11.8779661 L66.8135593,11.8779661 L66.8135593,15.1656174 L66.9196126,15.1656174 C67.874092,13.1506053 69.7830508,11.3476998 73.2828087,11.3476998 C78.7975787,11.3476998 80.8125908,15.2716707 80.8125908,19.5138015 L80.8125908,32.5583535 L75.6159806,32.5583535 L75.6159806,22.0590799 C75.6159806,19.725908 75.4038741,16.0140436 71.798063,16.0140436 C68.4043584,16.0140436 67.0256659,18.559322 67.0256659,21.316707 L67.0256659,32.5583535 L61.8290557,32.5583535 L61.8290557,11.8779661 L61.935109,11.8779661 Z" id="Shape"></path>
                    <path d="M104.46247,11.8779661 L104.46247,30.7554479 C104.46247,38.1791768 100.856659,42.9515738 92.7966102,42.9515738 C88.9786925,42.9515738 85.4789346,42.1031477 82.5094431,39.5578692 L85.5849879,35.3157385 C87.7060533,37.2246973 89.8271186,38.28523 92.6905569,38.28523 C97.6750605,38.28523 99.2658596,35.4217918 99.2658596,31.3917676 L99.2658596,29.9070218 L99.1598063,29.9070218 C97.6750605,31.9220339 95.0237288,32.8765133 92.3723971,32.8765133 C86.1152542,32.8765133 82.08523,28.1041162 82.08523,22.2711864 C82.08523,16.1200969 85.9031477,11.453753 92.2663438,11.453753 C95.1297821,11.453753 97.8871671,12.620339 99.3719128,15.0595642 L99.4779661,15.0595642 L99.4779661,11.9840194 L104.46247,11.9840194 L104.46247,11.8779661 Z M87.2818402,22.1651332 C87.2818402,25.4527845 89.8271186,28.1041162 93.3268765,28.1041162 C97.1447942,28.1041162 99.4779661,25.4527845 99.4779661,22.0590799 C99.4779661,18.4532688 97.1447942,16.0140436 93.3268765,16.0140436 C89.8271186,16.0140436 87.2818402,18.4532688 87.2818402,22.1651332 L87.2818402,22.1651332 Z" id="Shape"></path>
                    <path d="M120.68862,29.6949153 L120.582567,29.6949153 C119.097821,32.0280872 116.658596,33.0886199 113.901211,33.0886199 C110.083293,33.0886199 106.371429,30.9675545 106.371429,26.9375303 C106.371429,20.2561743 114.21937,19.725908 119.415981,19.725908 L120.68862,19.725908 L120.68862,19.0895884 C120.68862,16.5443099 118.673608,15.1656174 115.916223,15.1656174 C113.795157,15.1656174 111.780145,16.0140436 110.401453,17.2866828 L107.644068,14.5292978 C109.97724,12.1961259 113.158838,11.2416465 116.446489,11.2416465 C125.24891,11.2416465 125.24891,17.6048426 125.24891,20.5743341 L125.24891,32.4523002 L120.582567,32.4523002 L120.582567,29.6949153 L120.68862,29.6949153 Z M120.37046,23.2256659 L119.309927,23.2256659 C116.446489,23.2256659 111.568039,23.4377724 111.568039,26.4072639 C111.568039,28.3162228 113.476998,29.1646489 115.17385,29.1646489 C118.673608,29.1646489 120.37046,27.3617433 120.37046,24.3922518 L120.37046,23.2256659 L120.37046,23.2256659 Z" id="Shape"></path>
                    <path d="M128.324455,11.8779661 L133.521065,11.8779661 L133.521065,15.1656174 L133.627119,15.1656174 C134.793705,12.8324455 137.020823,11.3476998 139.778208,11.3476998 C140.414528,11.3476998 141.050847,11.453753 141.581114,11.6658596 L141.581114,16.6503632 C140.732688,16.4382567 139.884262,16.2261501 139.035835,16.2261501 C134.157385,16.2261501 133.521065,20.3622276 133.521065,21.4227603 L133.521065,32.4523002 L128.324455,32.4523002 L128.324455,11.8779661 L128.324455,11.8779661 Z" id="Shape"></path>
                    <path d="M159.716223,29.4828087 L159.716223,29.4828087 C158.125424,32.0280872 155.368039,33.0886199 152.5046,33.0886199 C146.141404,33.0886199 142.323487,28.3162228 142.323487,22.2711864 C142.323487,16.1200969 146.459564,11.453753 152.292494,11.453753 C156.216465,11.453753 158.231477,13.2566586 159.29201,14.6353511 L159.398063,14.6353511 L159.398063,0 L164.594673,0 L164.594673,32.5583535 L159.716223,32.5583535 L159.716223,29.4828087 L159.716223,29.4828087 Z M153.565133,28.422276 C157.383051,28.422276 159.610169,25.4527845 159.610169,22.1651332 C159.610169,18.9835351 157.276998,16.0140436 153.565133,16.0140436 C149.747215,16.0140436 147.520097,18.9835351 147.520097,22.1651332 C147.414044,25.4527845 149.747215,28.422276 153.565133,28.422276 L153.565133,28.422276 Z" id="Shape"></path>
                </g>
                <g id="Group" transform="translate(170.745763, 80.600484)">
                    <path d="M2.86343826,0.84842615 C4.45423729,0.84842615 5.72687651,2.12106538 5.72687651,3.71186441 C5.72687651,5.30266344 4.45423729,6.57530266 2.86343826,6.57530266 C1.27263923,6.57530266 0,5.30266344 0,3.71186441 C0,2.22711864 1.27263923,0.84842615 2.86343826,0.84842615 L2.86343826,0.84842615 Z M0.84842615,11.02954 L4.77239709,11.02954 L4.77239709,31.4978208 L0.84842615,31.4978208 L0.84842615,11.02954 L0.84842615,11.02954 Z" id="Shape"></path>
                    <path d="M8.37820823,11.02954 L12.3021792,11.02954 L12.3021792,14.211138 L12.4082324,14.211138 C13.3627119,12.0900726 16.0140436,10.4992736 19.0895884,10.4992736 C23.0135593,10.4992736 26.5133172,12.8324455 26.5133172,18.3472155 L26.5133172,31.4978208 L22.5893462,31.4978208 L22.5893462,19.4077482 C22.5893462,15.5898305 20.3622276,14.1050847 17.9230024,14.1050847 C14.7414044,14.1050847 12.1961259,16.2261501 12.1961259,20.8924939 L12.1961259,31.3917676 L8.27215496,31.3917676 L8.27215496,11.02954 L8.37820823,11.02954 Z" id="Shape"></path>
                    <path d="M28.8464891,11.02954 L32.77046,11.02954 L32.77046,14.211138 L32.8765133,14.211138 C33.8309927,12.0900726 36.4823245,10.4992736 39.5578692,10.4992736 C43.4818402,10.4992736 46.9815981,12.8324455 46.9815981,18.3472155 L46.9815981,31.4978208 L43.0576271,31.4978208 L43.0576271,19.4077482 C43.0576271,15.5898305 40.8305085,14.1050847 38.3912833,14.1050847 C35.2096852,14.1050847 32.6644068,16.2261501 32.6644068,20.8924939 L32.6644068,31.3917676 L28.7404358,31.3917676 L28.7404358,11.02954 L28.8464891,11.02954 Z" id="Shape"></path>
                    <path d="M59.177724,10.4992736 C65.2227603,10.4992736 69.9951574,15.2716707 69.9951574,21.2106538 C69.9951574,27.1496368 65.2227603,31.9220339 59.177724,31.9220339 C53.1326877,31.9220339 48.3602906,27.1496368 48.3602906,21.2106538 C48.3602906,15.2716707 53.1326877,10.4992736 59.177724,10.4992736 L59.177724,10.4992736 Z M59.177724,28.422276 C63.3138015,28.422276 65.8590799,25.4527845 65.8590799,21.316707 C65.8590799,17.1806295 63.3138015,14.211138 59.177724,14.211138 C55.0416465,14.211138 52.496368,17.1806295 52.496368,21.316707 C52.496368,25.4527845 55.0416465,28.422276 59.177724,28.422276 L59.177724,28.422276 Z" id="Shape"></path>
                    <path d="M69.040678,11.02954 L73.4949153,11.02954 L79.6460048,26.6193705 L85.4789346,11.02954 L89.6150121,11.02954 L81.5549637,31.4978208 L77.3128329,31.4978208 L69.040678,11.02954 L69.040678,11.02954 Z" id="Shape"></path>
                    <path d="M90.5694915,13.5748184 C92.6905569,11.5598063 95.872155,10.6053269 98.62954,10.6053269 C104.674576,10.6053269 107.113801,13.8929782 107.113801,17.3927361 L107.113801,27.7859564 C107.113801,29.1646489 107.113801,30.4372881 107.325908,31.4978208 L103.932203,31.4978208 C103.82615,30.4372881 103.82615,29.4828087 103.82615,28.422276 L103.720097,28.422276 C102.023245,31.0736077 99.6900726,32.0280872 96.6145278,32.0280872 C92.7966102,32.0280872 89.5089588,29.9070218 89.5089588,25.8769976 C89.5089588,20.5743341 94.5995157,18.7714286 100.750605,18.7714286 L103.614044,18.7714286 L103.614044,17.9230024 C103.614044,15.801937 102.023245,13.5748184 98.7355932,13.5748184 C95.7661017,13.5748184 94.3874092,14.8474576 92.9026634,15.9079903 L90.5694915,13.5748184 L90.5694915,13.5748184 Z M101.492978,21.6348668 C97.7811138,21.6348668 93.3268765,22.2711864 93.3268765,25.5588378 C93.3268765,27.8920097 95.0237288,28.8464891 97.6750605,28.8464891 C102.023245,28.8464891 103.50799,25.664891 103.50799,22.9075061 L103.50799,21.6348668 L101.492978,21.6348668 L101.492978,21.6348668 Z" id="Shape"></path>
                    <path d="M122.067312,14.4232446 L116.552542,14.4232446 L116.552542,23.6498789 C116.552542,25.9830508 116.552542,28.3162228 119.522034,28.3162228 C120.476513,28.3162228 121.537046,28.2101695 122.279419,27.6799031 L122.279419,31.179661 C121.324939,31.7099274 119.522034,31.8159806 118.779661,31.8159806 C112.840678,31.8159806 112.734625,28.1041162 112.734625,24.9225182 L112.734625,14.3171913 L108.280387,14.3171913 L108.280387,10.9234867 L112.734625,10.9234867 L112.734625,5.30266344 L116.658596,5.30266344 L116.658596,11.02954 L122.173366,11.02954 L122.173366,14.4232446 L122.067312,14.4232446 Z" id="Shape"></path>
                    <path d="M127.582082,0.84842615 C129.172881,0.84842615 130.445521,2.12106538 130.445521,3.71186441 C130.445521,5.30266344 129.172881,6.57530266 127.582082,6.57530266 C125.991283,6.57530266 124.718644,5.30266344 124.718644,3.71186441 C124.718644,2.22711864 125.991283,0.84842615 127.582082,0.84842615 L127.582082,0.84842615 Z M125.56707,11.02954 L129.491041,11.02954 L129.491041,31.4978208 L125.56707,31.4978208 L125.56707,11.02954 L125.56707,11.02954 Z" id="Shape"></path>
                    <path d="M130.551574,11.02954 L135.005811,11.02954 L141.156901,26.6193705 L146.989831,11.02954 L151.125908,11.02954 L143.06586,31.4978208 L138.823729,31.4978208 L130.551574,11.02954 L130.551574,11.02954 Z" id="Shape"></path>
                    <path d="M154.943826,22.6953995 C154.943826,26.3012107 158.231477,28.6343826 161.837288,28.6343826 C164.17046,28.6343826 165.973366,27.4677966 167.458111,25.5588378 L170.427603,27.7859564 C168.306538,30.5433414 165.337046,31.9220339 161.413075,31.9220339 C154.943826,31.9220339 150.913801,27.2556901 150.913801,21.2106538 C150.913801,15.0595642 155.368039,10.4992736 161.519128,10.4992736 C168.730751,10.4992736 171.488136,16.0140436 171.488136,21.316707 L171.488136,22.6953995 L154.943826,22.6953995 L154.943826,22.6953995 Z M167.139952,19.6198547 C167.033898,16.2261501 165.124939,13.6808717 161.200969,13.6808717 C157.383051,13.6808717 154.837772,16.8624697 154.837772,19.6198547 L167.139952,19.6198547 L167.139952,19.6198547 Z" id="Shape"></path>
                </g>
                <path d="M376.170944,82.8276029 L376.913317,88.766586 C376.913317,88.766586 401.835835,79.2217918 424.319128,83.8881356 C424.425182,83.7820823 407.986925,75.7220339 376.170944,82.8276029 L376.170944,82.8276029 Z" id="Shape"></path>
                <path d="M374.368039,74.1312349 C411.38063,61.7230024 437.575787,75.1917676 437.575787,75.1917676 C407.456659,65.6469734 375.640678,80.0702179 375.640678,80.0702179 L374.368039,74.1312349 L374.368039,74.1312349 Z" id="Shape"></path>
                <path d="M355.066344,78.903632 L349.233414,79.327845 C349.233414,79.327845 355.384504,96.8266344 355.384504,112.522518 C355.384504,112.522518 358.247942,98.3113801 355.066344,78.903632 L355.066344,78.903632 Z" id="Shape"></path>
                <path d="M363.232446,77.5249395 L357.081356,78.5854722 C357.081356,78.5854722 367.050363,103.82615 361.853753,127.900242 C361.853753,127.900242 369.489588,104.356416 363.232446,77.5249395 L363.232446,77.5249395 Z" id="Shape"></path>
                <path d="M371.186441,75.2978208 C380.413075,117.507022 366.838257,145.505085 366.838257,145.505085 C378.398063,111.355932 365.353511,76.8886199 365.353511,76.8886199 L371.186441,75.2978208 L371.186441,75.2978208 Z" id="Shape"></path>
                <path d="M389.851816,66.8135593 L395.790799,66.0711864 C395.790799,66.0711864 389.00339,48.4663438 388.579177,32.77046 C388.579177,32.77046 386.139952,47.5118644 389.851816,66.8135593 L389.851816,66.8135593 Z" id="Shape"></path>
                <path d="M381.473608,68.5104116 L387.624697,67.1317191 C387.624697,67.1317191 376.913317,41.8910412 381.579661,17.7108959 C381.579661,17.8169492 374.580145,41.9970944 381.473608,68.5104116 L381.473608,68.5104116 Z" id="Shape"></path>
                <path d="M373.625666,70.9496368 C363.338499,28.9525424 376.276998,0.636319613 376.276998,0.636319613 C365.565617,35.103632 379.564649,69.2527845 379.564649,69.2527845 L373.625666,70.9496368 L373.625666,70.9496368 Z" id="Shape"></path>
                <path d="M368.747215,66.283293 L370.231961,71.9041162 C370.231961,71.9041162 339.476513,83.251816 303.418402,67.6619855 C303.418402,67.6619855 334.385956,80.3883777 368.747215,66.283293 L368.747215,66.283293 Z" id="Shape"></path>
                <path d="M367.26247,57.4808717 L368.216949,63.7380145 C368.216949,63.7380145 347.006295,70.7375303 319.856659,62.6774818 C319.856659,62.7835351 339.0523,68.6164649 367.26247,57.4808717 L367.26247,57.4808717 Z" id="Shape"></path>
                <path d="M366.62615,49.1026634 L366.94431,55.3598063 C366.94431,55.3598063 349.975787,59.2837772 334.598063,55.5719128 C334.704116,55.5719128 351.778692,56.3142857 366.62615,49.1026634 L366.62615,49.1026634 Z" id="Shape"></path>
                <path d="M377.549637,97.1447942 L377.125424,91.2058111 C377.125424,91.2058111 394.624213,86.7515738 410.10799,90.0392252 C410.10799,90.1452785 392.397094,89.6150121 377.549637,97.1447942 L377.549637,97.1447942 Z" id="Shape"></path>
                <g id="Group" transform="translate(108.174334, 120.900726)">
                    <path d="M0.742372881,9.75690073 C0.742372881,8.80242131 0.636319613,7.95399516 0.636319613,7.21162228 L2.33317191,7.21162228 L2.33317191,9.01452785 L2.33317191,9.01452785 C2.86343826,7.95399516 4.13607748,6.99951574 5.93898305,6.99951574 C8.27215496,6.99951574 9.01452785,8.27215496 9.33268765,9.01452785 C10.0750605,7.74188862 11.1355932,6.99951574 12.7263923,6.99951574 C15.801937,6.99951574 16.7564165,8.69636804 16.7564165,11.453753 L16.7564165,17.9230024 L14.9535109,17.9230024 L14.9535109,11.5598063 C14.9535109,10.0750605 14.4232446,8.59031477 12.3021792,8.59031477 C10.8174334,8.59031477 9.54479419,9.862954 9.54479419,11.7719128 L9.54479419,17.9230024 L7.74188862,17.9230024 L7.74188862,11.8779661 C7.74188862,9.54479419 7.10556901,8.59031477 5.72687651,8.59031477 C3.3937046,8.59031477 2.43922518,10.2871671 2.43922518,12.7263923 L2.43922518,17.9230024 L0.636319613,17.9230024 L0.636319613,9.75690073 L0.742372881,9.75690073 Z" id="Shape"></path>
                    <path d="M25.3467312,6.89346247 C28.6343826,6.89346247 31.0736077,9.22663438 31.0736077,12.5142857 C31.0736077,15.9079903 28.6343826,18.135109 25.3467312,18.135109 C22.0590799,18.135109 19.6198547,15.801937 19.6198547,12.5142857 C19.6198547,9.22663438 22.0590799,6.89346247 25.3467312,6.89346247 L25.3467312,6.89346247 Z M25.3467312,16.5443099 C27.6799031,16.5443099 29.1646489,14.8474576 29.1646489,12.5142857 C29.1646489,10.2871671 27.6799031,8.4842615 25.3467312,8.4842615 C23.0135593,8.4842615 21.5288136,10.1811138 21.5288136,12.5142857 C21.5288136,14.8474576 23.0135593,16.5443099 25.3467312,16.5443099 L25.3467312,16.5443099 Z" id="Shape"></path>
                    <path d="M33.8309927,9.75690073 C33.8309927,8.80242131 33.7249395,7.95399516 33.7249395,7.21162228 L35.4217918,7.21162228 L35.4217918,9.01452785 L35.4217918,9.01452785 C35.9520581,7.95399516 37.2246973,6.99951574 39.0276029,6.99951574 C41.8910412,6.99951574 43.0576271,8.80242131 43.0576271,11.3476998 L43.0576271,17.9230024 L41.3607748,17.9230024 L41.3607748,11.453753 C41.3607748,9.65084746 40.6184019,8.59031477 38.9215496,8.59031477 C36.5883777,8.59031477 35.6338983,10.2871671 35.6338983,12.7263923 L35.6338983,17.9230024 L33.8309927,17.9230024 L33.8309927,9.75690073 L33.8309927,9.75690073 Z" id="Shape"></path>
                    <path d="M56.1021792,16.0140436 C54.82954,17.6048426 53.3447942,18.2411622 51.3297821,18.2411622 C47.9360775,18.2411622 45.9210654,15.6958838 45.9210654,12.620339 C45.9210654,9.33268765 48.2542373,6.99951574 51.4358354,6.99951574 C54.4053269,6.99951574 56.5263923,9.01452785 56.5263923,12.620339 L56.5263923,13.1506053 L47.8300242,13.1506053 C47.9360775,14.9535109 49.4208232,16.5443099 51.3297821,16.5443099 C52.8145278,16.5443099 53.8750605,16.0140436 54.7234867,14.9535109 L56.1021792,16.0140436 L56.1021792,16.0140436 Z M54.6174334,11.5598063 C54.5113801,9.75690073 53.3447942,8.59031477 51.4358354,8.59031477 C49.4208232,8.59031477 48.148184,9.75690073 47.9360775,11.5598063 L54.6174334,11.5598063 L54.6174334,11.5598063 Z" id="Shape"></path>
                    <path d="M65.116707,8.69636804 L61.935109,8.69636804 L61.935109,13.9990315 C61.935109,15.377724 61.935109,16.4382567 63.525908,16.4382567 C64.0561743,16.4382567 64.5864407,16.3322034 65.116707,16.1200969 L65.2227603,17.7108959 C64.5864407,18.0290557 63.8440678,18.135109 63.1016949,18.135109 C60.5564165,18.135109 60.1322034,16.7564165 60.1322034,14.5292978 L60.1322034,8.69636804 L57.7990315,8.69636804 L57.7990315,7.21162228 L60.1322034,7.21162228 L60.1322034,4.13607748 L61.935109,4.13607748 L61.935109,7.21162228 L65.116707,7.21162228 L65.116707,8.69636804 L65.116707,8.69636804 Z" id="Shape"></path>
                    <path d="M68.4043584,1.6968523 C69.1467312,1.6968523 69.6769976,2.33317191 69.6769976,2.96949153 C69.6769976,3.71186441 69.1467312,4.24213075 68.4043584,4.24213075 C67.6619855,4.24213075 67.1317191,3.71186441 67.1317191,2.96949153 C67.1317191,2.33317191 67.6619855,1.6968523 68.4043584,1.6968523 L68.4043584,1.6968523 Z M67.5559322,7.21162228 L69.3588378,7.21162228 L69.3588378,17.9230024 L67.5559322,17.9230024 L67.5559322,7.21162228 L67.5559322,7.21162228 Z" id="Shape"></path>
                    <path d="M71.798063,16.5443099 L78.0552058,8.69636804 L72.1162228,8.69636804 L72.1162228,7.21162228 L80.494431,7.21162228 L80.494431,8.59031477 L74.2372881,16.4382567 L80.7065375,16.4382567 L80.7065375,17.9230024 L71.9041162,17.9230024 L71.9041162,16.5443099 L71.798063,16.5443099 Z" id="Shape"></path>
                    <path d="M84.1002421,1.6968523 C84.842615,1.6968523 85.3728814,2.33317191 85.3728814,2.96949153 C85.3728814,3.71186441 84.842615,4.24213075 84.1002421,4.24213075 C83.3578692,4.24213075 82.8276029,3.71186441 82.8276029,2.96949153 C82.7215496,2.33317191 83.3578692,1.6968523 84.1002421,1.6968523 L84.1002421,1.6968523 Z M83.1457627,7.21162228 L84.9486683,7.21162228 L84.9486683,17.9230024 L83.1457627,17.9230024 L83.1457627,7.21162228 L83.1457627,7.21162228 Z" id="Shape"></path>
                    <path d="M88.4484262,9.75690073 C88.4484262,8.80242131 88.3423729,7.95399516 88.3423729,7.21162228 L90.0392252,7.21162228 L90.0392252,9.01452785 L90.0392252,9.01452785 C90.5694915,7.95399516 91.8421308,6.99951574 93.6450363,6.99951574 C96.5084746,6.99951574 97.6750605,8.80242131 97.6750605,11.3476998 L97.6750605,17.9230024 L95.872155,17.9230024 L95.872155,11.453753 C95.872155,9.65084746 95.1297821,8.59031477 93.4329298,8.59031477 C91.0997579,8.59031477 90.1452785,10.2871671 90.1452785,12.7263923 L90.1452785,17.9230024 L88.3423729,17.9230024 L88.3423729,9.75690073 L88.4484262,9.75690073 Z" id="Shape"></path>
                    <path d="M111.886199,17.3927361 C111.886199,21.2106538 109.765133,23.3317191 106.053269,23.3317191 C103.932203,23.3317191 102.341404,22.8014528 100.750605,21.316707 L102.023245,19.8319613 C103.189831,20.9985472 104.356416,21.6348668 106.053269,21.6348668 C109.234867,21.6348668 110.083293,19.6198547 110.083293,17.2866828 L110.083293,15.9079903 L110.083293,15.9079903 C109.234867,17.2866828 107.750121,17.9230024 106.265375,17.9230024 C102.871671,17.9230024 100.538499,15.5898305 100.538499,12.4082324 C100.538499,8.90847458 102.871671,6.7874092 106.265375,6.7874092 C107.750121,6.7874092 109.34092,7.42372881 110.083293,8.90847458 L110.083293,8.90847458 L110.083293,7.10556901 L111.886199,7.10556901 L111.886199,17.3927361 L111.886199,17.3927361 Z M106.265375,16.4382567 C108.7046,16.4382567 110.083293,14.6353511 110.083293,12.5142857 C110.083293,10.1811138 108.492494,8.59031477 106.265375,8.59031477 C104.038257,8.59031477 102.447458,10.2871671 102.447458,12.620339 C102.553511,14.7414044 104.250363,16.4382567 106.265375,16.4382567 L106.265375,16.4382567 Z" id="Shape"></path>
                    <path d="M121.537046,9.75690073 C121.537046,8.80242131 121.430993,7.95399516 121.430993,7.21162228 L123.127845,7.21162228 L123.127845,9.01452785 L123.127845,9.01452785 C123.658111,7.95399516 124.930751,6.99951574 126.733656,6.99951574 C126.945763,6.99951574 127.263923,6.99951574 127.476029,7.10556901 L127.369976,8.90847458 C127.051816,8.80242131 126.733656,8.80242131 126.415496,8.80242131 C124.294431,8.80242131 123.233898,10.2871671 123.233898,12.8324455 L123.233898,18.0290557 L121.430993,18.0290557 L121.430993,9.75690073 L121.537046,9.75690073 Z" id="Shape"></path>
                    <path d="M138.823729,16.0140436 C137.55109,17.6048426 136.066344,18.2411622 134.051332,18.2411622 C130.657627,18.2411622 128.642615,15.6958838 128.642615,12.620339 C128.642615,9.33268765 130.975787,6.99951574 134.157385,6.99951574 C137.126877,6.99951574 139.247942,9.01452785 139.247942,12.620339 L139.247942,13.1506053 L130.551574,13.1506053 C130.657627,14.9535109 132.142373,16.5443099 134.051332,16.5443099 C135.536077,16.5443099 136.59661,16.0140436 137.445036,14.9535109 L138.823729,16.0140436 L138.823729,16.0140436 Z M137.23293,11.5598063 C137.126877,9.75690073 135.960291,8.59031477 134.051332,8.59031477 C132.03632,8.59031477 130.76368,9.75690073 130.551574,11.5598063 L137.23293,11.5598063 L137.23293,11.5598063 Z" id="Shape"></path>
                    <path d="M149.535109,9.862954 C148.792736,8.90847458 147.94431,8.59031477 146.883777,8.59031477 C144.444552,8.59031477 143.277966,10.3932203 143.277966,12.620339 C143.277966,14.8474576 144.762712,16.6503632 146.883777,16.6503632 C148.050363,16.6503632 148.898789,16.2261501 149.641162,15.2716707 L151.019855,16.5443099 C149.959322,17.7108959 148.474576,18.2411622 146.989831,18.2411622 C143.702179,18.2411622 141.475061,15.9079903 141.475061,12.620339 C141.475061,9.33268765 143.702179,6.99951574 146.989831,6.99951574 C148.58063,6.99951574 150.065375,7.52978208 151.125908,8.69636804 L149.535109,9.862954 L149.535109,9.862954 Z" id="Shape"></path>
                    <path d="M156.958838,20.3622276 C156.216465,22.1651332 155.580145,23.4377724 153.353027,23.4377724 C152.82276,23.4377724 152.186441,23.4377724 151.762228,23.1196126 L151.974334,21.5288136 C152.292494,21.6348668 152.716707,21.7409201 153.246973,21.7409201 C154.413559,21.7409201 154.837772,20.9985472 155.261985,19.9380145 L156.004358,17.9230024 L151.550121,7.10556901 L153.671186,7.10556901 L156.958838,15.4837772 L156.958838,15.4837772 L160.140436,7.10556901 L162.049395,7.10556901 L156.958838,20.3622276 L156.958838,20.3622276 Z" id="Shape"></path>
                    <path d="M171.594189,9.862954 C170.851816,8.90847458 170.00339,8.59031477 168.942857,8.59031477 C166.503632,8.59031477 165.337046,10.3932203 165.337046,12.620339 C165.337046,14.8474576 166.821792,16.6503632 168.942857,16.6503632 C170.109443,16.6503632 170.957869,16.2261501 171.700242,15.2716707 L173.078935,16.5443099 C172.018402,17.7108959 170.533656,18.2411622 169.04891,18.2411622 C165.761259,18.2411622 163.53414,15.9079903 163.53414,12.620339 C163.53414,9.33268765 165.761259,6.99951574 169.04891,6.99951574 C170.639709,6.99951574 172.124455,7.52978208 173.184988,8.69636804 L171.594189,9.862954 L171.594189,9.862954 Z" id="Shape"></path>
                    <path d="M175.2,0.636319613 L177.002906,0.636319613 L177.002906,17.9230024 L175.2,17.9230024 L175.2,0.636319613 L175.2,0.636319613 Z" id="Shape"></path>
                    <path d="M180.39661,8.59031477 C181.457143,7.42372881 183.047942,6.89346247 184.638741,6.89346247 C187.820339,6.89346247 189.092978,8.37820823 189.092978,11.453753 L189.092978,16.0140436 C189.092978,16.6503632 189.199031,17.2866828 189.305085,17.8169492 L187.608232,17.8169492 C187.502179,17.2866828 187.502179,16.6503632 187.502179,16.2261501 L187.502179,16.2261501 C186.759806,17.2866828 185.59322,18.135109 184.002421,18.135109 C181.881356,18.135109 179.972397,17.0745763 179.972397,14.9535109 C179.972397,11.453753 184.108475,11.2416465 186.759806,11.2416465 L187.396126,11.2416465 L187.396126,10.9234867 C187.396126,9.33268765 186.441646,8.59031477 184.744794,8.59031477 C183.578208,8.59031477 182.411622,9.01452785 181.563196,9.75690073 L180.39661,8.59031477 L180.39661,8.59031477 Z M185.59322,12.7263923 C183.366102,12.7263923 181.881356,13.3627119 181.881356,14.7414044 C181.881356,16.1200969 182.835835,16.5443099 184.214528,16.5443099 C186.22954,16.5443099 187.290073,15.0595642 187.396126,13.3627119 L187.396126,12.7263923 L185.59322,12.7263923 L185.59322,12.7263923 Z" id="Shape"></path>
                    <path d="M192.38063,0.636319613 L194.183535,0.636319613 L194.183535,8.80242131 L194.183535,8.80242131 C195.138015,7.63583535 196.516707,6.99951574 198.001453,6.99951574 C201.395157,6.99951574 203.622276,9.33268765 203.622276,12.620339 C203.622276,15.801937 201.289104,18.2411622 198.319613,18.2411622 C196.410654,18.2411622 194.819855,17.2866828 194.183535,16.1200969 L194.183535,16.1200969 L194.183535,18.0290557 L192.38063,18.0290557 L192.38063,0.636319613 L192.38063,0.636319613 Z M197.8954,16.5443099 C200.228571,16.5443099 201.713317,14.8474576 201.713317,12.5142857 C201.713317,10.2871671 200.228571,8.4842615 197.8954,8.4842615 C195.562228,8.4842615 194.077482,10.1811138 194.077482,12.5142857 C194.077482,14.8474576 195.562228,16.5443099 197.8954,16.5443099 L197.8954,16.5443099 Z" id="Shape"></path>
                    <path d="M206.591768,0.636319613 L208.394673,0.636319613 L208.394673,17.9230024 L206.591768,17.9230024 L206.591768,0.636319613 L206.591768,0.636319613 Z" id="Shape"></path>
                    <path d="M221.439225,16.0140436 C220.166586,17.6048426 218.68184,18.2411622 216.666828,18.2411622 C213.273123,18.2411622 211.258111,15.6958838 211.258111,12.620339 C211.258111,9.33268765 213.591283,6.99951574 216.772881,6.99951574 C219.742373,6.99951574 221.863438,9.01452785 221.863438,12.620339 L221.863438,13.1506053 L213.16707,13.1506053 C213.273123,14.9535109 214.757869,16.5443099 216.666828,16.5443099 C218.151574,16.5443099 219.212107,16.0140436 220.060533,14.9535109 L221.439225,16.0140436 L221.439225,16.0140436 Z M219.954479,11.5598063 C219.848426,9.75690073 218.68184,8.59031477 216.772881,8.59031477 C214.757869,8.59031477 213.48523,9.75690073 213.273123,11.5598063 L219.954479,11.5598063 L219.954479,11.5598063 Z" id="Shape"></path>
                    <path d="M224.83293,15.0595642 C225.575303,15.9079903 226.317676,16.5443099 227.590315,16.5443099 C228.756901,16.5443099 229.923487,16.0140436 229.923487,14.8474576 C229.923487,13.6808717 228.756901,13.3627119 227.590315,13.1506053 C225.575303,12.7263923 223.772397,12.3021792 223.772397,10.0750605 C223.772397,7.95399516 225.787409,6.89346247 227.802421,6.89346247 C229.287167,6.89346247 230.66586,7.42372881 231.408232,8.80242131 L229.923487,9.75690073 C229.499274,9.01452785 228.756901,8.4842615 227.696368,8.4842615 C226.741889,8.4842615 225.575303,9.01452785 225.575303,9.96900726 C225.575303,10.8174334 226.847942,11.2416465 228.226634,11.5598063 C230.135593,11.8779661 231.726392,12.620339 231.726392,14.7414044 C231.726392,17.1806295 229.605327,18.135109 227.484262,18.135109 C225.681356,18.135109 224.408717,17.6048426 223.348184,16.1200969 L224.83293,15.0595642 L224.83293,15.0595642 Z" id="Shape"></path>
                </g>
            </g>
        </g>
    </g>
</svg>